<svg width="321" height="38" viewBox="0 0 321 38" fill="none" xmlns="http://www.w3.org/2000/svg">
<g clip-path="url(#clip0_3512_9039)">
<mask id="mask0_3512_9039" style="mask-type:luminance" maskUnits="userSpaceOnUse" x="0" y="0" width="141" height="38">
<path d="M141 0H0V38H141V0Z" fill="white"/>
</mask>
<g mask="url(#mask0_3512_9039)">
<path d="M27 7L41 18.5194L37.2663 28H27V7Z" fill="#E4002B"/>
<path d="M24 0L0 6.72341V18L24 7.24916V0Z" fill="#E4002B"/>
<path d="M24 9L0 20.1067V33L24 17.2408V9Z" fill="#E4002B"/>
<path d="M18 37H34V30H25.7936L18 37Z" fill="#E4002B"/>
<path d="M24 20L0 35.3498V38H14.8359L24 28.7555V20Z" fill="#E4002B"/>
<path d="M74.8363 18.5165V18.4184C77.7484 17.1894 79.6895 14.6314 79.6895 10.5011C79.6895 4.64894 75.7106 1 67.8003 1H53V38H67.9947C77.1662 38 81 33.8591 81 27.2208C81 22.5497 78.8636 19.6476 74.8363 18.5165ZM60.8609 7.98327H67.5082C70.5653 7.98327 71.8759 9.07511 71.8759 11.9762C71.8759 14.8774 70.6147 16.0584 67.7026 16.0584H60.8609V7.98424V7.98327ZM68.0904 31.2138H60.86V22.2046H67.8961C71.4387 22.2046 72.7976 23.4837 72.7976 26.5818C72.7976 30.0729 71.342 31.2138 68.0904 31.2138Z" fill="#E4002B"/>
<path d="M103.287 1H93.5672L81 38H89.6073L91.6813 30.761H104.835L106.909 38H116L103.287 1ZM93.6641 23.8277L97.2904 11.1892L98.3056 7.30405H98.451L99.4178 11.1892L102.9 23.8277H93.6641Z" fill="#E4002B"/>
<path d="M133.247 30.5464C126.731 30.5464 124.416 27.9741 124.416 18.7797C124.416 10.0746 126.637 7.38439 133.105 7.38439C135.768 7.38439 138.928 7.8737 140.783 8.60667V1.51567C138.738 0.684245 135.483 0 132.63 0C121.216 0 116 6.50423 116 18.7309C116 31.8378 121.312 38 132.107 38C135.245 38 138.67 37.1686 141 35.995V28.8796C139.003 29.7598 135.864 30.5473 133.249 30.5473L133.247 30.5464Z" fill="#E4002B"/>
</g>
<path d="M182 24.8303V12.6958H186.337C188.827 12.6958 190.301 13.6462 190.301 15.8525V15.9204C190.301 17.1253 189.759 18.0757 188.387 18.5C190.03 18.8564 190.81 19.7559 190.81 21.3681V21.436C190.81 23.6932 189.319 24.8303 186.659 24.8303H182ZM184.202 23.218H186.388C187.896 23.218 188.59 22.5392 188.59 21.2833V21.2154C188.59 19.9595 187.896 19.3316 186.235 19.3316H184.202V23.218ZM184.202 17.8042H186.066C187.557 17.8042 188.133 17.2611 188.133 16.0222V15.9543C188.133 14.8003 187.472 14.3081 186.032 14.3081H184.202V17.8042Z" fill="#E4002B"/>
<path d="M195.071 25C193.445 25 192.106 24.2193 192.106 22.3695C192.106 20.299 194.105 19.5522 196.646 19.5522H197.748V19.094C197.748 17.906 197.341 17.312 196.138 17.312C195.071 17.312 194.546 17.8211 194.444 18.7037H192.462C192.631 16.6332 194.275 15.7676 196.257 15.7676C198.239 15.7676 199.798 16.5822 199.798 19.0091V24.8303H197.782V23.7441C197.206 24.5078 196.426 25 195.071 25ZM195.562 23.5235C196.816 23.5235 197.748 22.8616 197.748 21.7245V20.842H196.697C195.139 20.842 194.139 21.1984 194.139 22.2846C194.139 23.0313 194.546 23.5235 195.562 23.5235Z" fill="#E4002B"/>
<path d="M202.147 24.8303V15.9543H204.197V17.3629C204.621 16.4974 205.603 15.7676 207.06 15.7676C208.839 15.7676 210.093 16.8029 210.093 19.2467V24.8303H208.043V19.4334C208.043 18.0927 207.501 17.4817 206.281 17.4817C205.129 17.4817 204.197 18.1945 204.197 19.6031V24.8303H202.147Z" fill="#E4002B"/>
<path d="M216.334 25C213.793 25 211.861 23.3368 211.861 20.5026V20.3668C211.861 17.5496 213.861 15.7676 216.334 15.7676C218.299 15.7676 220.146 16.6501 220.383 19.094H218.401C218.231 17.906 217.452 17.4138 216.368 17.4138C214.962 17.4138 213.962 18.5 213.962 20.3329V20.4687C213.962 22.4034 214.911 23.4217 216.419 23.4217C217.503 23.4217 218.435 22.7768 218.553 21.5209H220.434C220.281 23.5574 218.74 25 216.334 25Z" fill="#E4002B"/>
<path d="M224.52 25C222.894 25 221.555 24.2193 221.555 22.3695C221.555 20.299 223.554 19.5522 226.096 19.5522H227.197V19.094C227.197 17.906 226.79 17.312 225.587 17.312C224.52 17.312 223.995 17.8211 223.893 18.7037H221.911C222.08 16.6332 223.724 15.7676 225.706 15.7676C227.688 15.7676 229.247 16.5822 229.247 19.0091V24.8303H227.231V23.7441C226.655 24.5078 225.875 25 224.52 25ZM225.011 23.5235C226.265 23.5235 227.197 22.8616 227.197 21.7245V20.842H226.146C224.588 20.842 223.588 21.1984 223.588 22.2846C223.588 23.0313 223.995 23.5235 225.011 23.5235Z" fill="#E4002B"/>
<path d="M239.53 25C236.921 25 235.04 23.2859 235.04 20.4856V20.3499C235.04 17.6005 236.921 15.7676 239.445 15.7676C241.647 15.7676 243.63 17.0744 243.63 20.248V20.842H237.141C237.209 22.5222 238.056 23.4726 239.581 23.4726C240.817 23.4726 241.461 22.9804 241.613 22.1149H243.596C243.308 23.9817 241.8 25 239.53 25ZM237.175 19.4674H241.597C241.495 17.9399 240.716 17.2611 239.445 17.2611C238.208 17.2611 237.378 18.0927 237.175 19.4674Z" fill="#E4002B"/>
<path d="M245.461 24.8303V15.9543H247.51V17.3629C247.934 16.4974 248.917 15.7676 250.374 15.7676C252.152 15.7676 253.406 16.8029 253.406 19.2467V24.8303H251.356V19.4334C251.356 18.0927 250.814 17.4817 249.594 17.4817C248.442 17.4817 247.51 18.1945 247.51 19.6031V24.8303H245.461Z" fill="#E4002B"/>
<path d="M259.974 24.8303V12.6958H262.227V23.0313H267.394V24.8303H259.974Z" fill="#E4002B"/>
<path d="M269.373 14.6305L270.372 12H272.643L270.881 14.6305H269.373ZM269.186 24.8303V15.9543H271.236V24.8303H269.186Z" fill="#E4002B"/>
<path d="M273.735 24.8303V15.9543H275.785V17.3629C276.208 16.4974 277.191 15.7676 278.648 15.7676C280.427 15.7676 281.681 16.8029 281.681 19.2467V24.8303H279.631V19.4334C279.631 18.0927 279.089 17.4817 277.869 17.4817C276.717 17.4817 275.785 18.1945 275.785 19.6031V24.8303H273.735Z" fill="#E4002B"/>
<path d="M287.939 25C285.33 25 283.449 23.2859 283.449 20.4856V20.3499C283.449 17.6005 285.33 15.7676 287.854 15.7676C290.056 15.7676 292.039 17.0744 292.039 20.248V20.842H285.55C285.618 22.5222 286.465 23.4726 287.99 23.4726C289.226 23.4726 289.87 22.9804 290.023 22.1149H292.005C291.717 23.9817 290.209 25 287.939 25ZM285.584 19.4674H290.006C289.904 17.9399 289.125 17.2611 287.854 17.2611C286.617 17.2611 285.787 18.0927 285.584 19.4674Z" fill="#E4002B"/>
<path d="M296.273 25C294.647 25 293.309 24.2193 293.309 22.3695C293.309 20.299 295.308 19.5522 297.849 19.5522H298.95V19.094C298.95 17.906 298.543 17.312 297.341 17.312C296.273 17.312 295.748 17.8211 295.646 18.7037H293.664C293.834 16.6332 295.477 15.7676 297.459 15.7676C299.441 15.7676 301 16.5822 301 19.0091V24.8303H298.984V23.7441C298.408 24.5078 297.629 25 296.273 25ZM296.765 23.5235C298.018 23.5235 298.95 22.8616 298.95 21.7245V20.842H297.9C296.341 20.842 295.342 21.1984 295.342 22.2846C295.342 23.0313 295.748 23.5235 296.765 23.5235Z" fill="#E4002B"/>
<path fill-rule="evenodd" clip-rule="evenodd" d="M161 38L161 4.37114e-08L162 0L162 38L161 38Z" fill="#E4002B"/>
</g>
<defs>
<clipPath id="clip0_3512_9039">
<rect width="321" height="38" fill="white"/>
</clipPath>
</defs>
</svg>
